<svg xmlns="http://www.w3.org/2000/svg" style="display:none">
  <symbol id="icon-users" viewBox="0 0 24 24">
    <path fill="currentColor" d="M16 11c1.66 0 3-1.34 3-3s-1.34-3-3-3-3 1.34-3 3 1.34 3 3 3Zm-8 0c1.66 0 3-1.34 3-3S9.66 5 8 5 5 6.34 5 8s1.34 3 3 3Zm0 2c-2.67 0-8 1.34-8 4v2h10v-2c0-1.86.75-3.41 1.97-4.57C10.76 12.16 9.39 13 8 13Zm8 0c-1.69 0-3.29.35-4.61.96C12.45 14.93 13 16.36 13 18v2h11v-2c0-2.66-5.33-5-8-5Z"/>
  </symbol>
  <symbol id="icon-briefcase" viewBox="0 0 24 24">
    <path fill="currentColor" d="M10 4h4a2 2 0 0 1 2 2v2h4a2 2 0 0 1 2 2v8a2 2 0 0 1-2 2H4a2 2 0 0 1-2-2V10a2 2 0 0 1 2-2h4V6a2 2 0 0 1 2-2Zm0 4h4V6h-4v2Z"/>
  </symbol>
  <symbol id="icon-star" viewBox="0 0 24 24">
    <path fill="currentColor" d="M12 17.27 18.18 21l-1.64-7.03L22 9.24l-7.19-.61L12 2 9.19 8.63 2 9.24l5.46 4.73L5.82 21z"/>
  </symbol>
  <symbol id="icon-location" viewBox="0 0 24 24">
    <path fill="currentColor" d="M12 2a7 7 0 0 0-7 7c0 5.25 7 13 7 13s7-7.75 7-13a7 7 0 0 0-7-7Zm0 9.5a2.5 2.5 0 1 1 0-5 2.5 2.5 0 0 1 0 5Z"/>
  </symbol>
  <symbol id="icon-send" viewBox="0 0 24 24">
    <path fill="currentColor" d="M2.01 21 23 12 2.01 3 2 10l15 2-15 2z"/>
  </symbol>
  <symbol id="icon-message" viewBox="0 0 24 24">
    <path fill="currentColor" d="M20 2H4a2 2 0 0 0-2 2v18l4-4h14a2 2 0 0 0 2-2V4a2 2 0 0 0-2-2Z"/>
  </symbol>
  <symbol id="icon-external" viewBox="0 0 24 24">
    <path fill="currentColor" d="M14 3v2h3.59L10 12.59 11.41 14 19 6.41V10h2V3zM5 5h7V3H5a2 2 0 0 0-2 2v14a2 2 0 0 0 2 2h14a2 2 0 0 0 2-2v-7h-2v7H5z"/>
  </symbol>
  <symbol id="icon-close" viewBox="0 0 24 24">
    <path fill="currentColor" d="M19 6.41 17.59 5 12 10.59 6.41 5 5 6.41 10.59 12 5 17.59 6.41 19 12 13.41 17.59 19 19 17.59 13.41 12z"/>
  </symbol>
</svg>
